<?xml version="1.0" encoding="UTF-8"?>
<svg width="96" height="96" viewBox="0 0 96 96" fill="none" xmlns="http://www.w3.org/2000/svg" role="img" aria-label="TinyTots icon">
  <defs>
    <linearGradient id="ig" x1="0" y1="0" x2="1" y2="1">
      <stop offset="0%" stop-color="#667eea"/>
      <stop offset="100%" stop-color="#764ba2"/>
    </linearGradient>
  </defs>
  <circle cx="48" cy="48" r="46" fill="url(#ig)"/>
  <!-- Stylized T for TinyTots -->
  <path d="M28 34c0-2.2 1.8-4 4-4h32c1.1 0 2 .9 2 2v6c0 1.1-.9 2-2 2h-12v26c0 1.1-.9 2-2 2h-8c-1.1 0-2-.9-2-2V40H32c-2.2 0-4-1.8-4-4z" fill="#ffffff"/>
  <!-- playful dots -->
  <circle cx="70" cy="26" r="4" fill="#fff" opacity="0.9"/>
  <circle cx="24" cy="68" r="3.5" fill="#b3e5fc"/>
  <circle cx="62" cy="66" r="3" fill="#e1bee7"/>
</svg>